<svg width="102" height="102" viewBox="0 0 102 102" fill="none" xmlns="http://www.w3.org/2000/svg">
    <path d="M11.7275 8.68839L11.7275 8.6884C7.30185 12.0865 4.81857 17.16 4.81857 22.6144V40.323C4.81857 41.5871 6.04743 42.485 7.25153 42.1001L12.7352 40.3472C12.7352 40.3472 12.7353 40.3472 12.7353 40.3472C13.6847 40.0439 14.7363 40.2622 15.4869 40.9153L15.4868 40.9154L15.4951 40.9223L24.1921 48.1659L24.8125 48.6827L25.0005 47.8974L29.6198 28.601C29.6198 28.6009 29.6199 28.6009 29.6199 28.6008C29.8598 27.6001 30.5871 26.8284 31.571 26.5284C32.5556 26.2285 33.5889 26.4646 34.3456 27.1622L34.3456 27.1622L48.5032 40.2102L49.1399 40.797L49.3318 39.9527L56.688 7.59634C56.9747 6.33841 56.0181 5.14129 54.7287 5.14129H22.3148C18.4981 5.14129 14.7615 6.35907 11.7275 8.68839ZM6.59653 45.9966L6.59635 45.9966C5.53735 46.3354 4.81857 47.3205 4.81857 48.432V59.511C4.81857 64.5073 5.79564 69.353 7.72366 73.9111C9.58626 78.3159 12.2551 82.2737 15.6545 85.673C19.0538 89.0724 23.0115 91.7412 27.4172 93.6058L27.4174 93.6058C30.5424 94.9274 33.8034 95.8018 37.1549 96.2216L37.1551 96.2216C38.485 96.3875 39.719 95.5098 40.0147 94.2081C40.0147 94.208 40.0147 94.208 40.0148 94.2079L47.9619 59.2523C48.1876 58.2597 48.9325 57.4541 49.9042 57.1525L49.9046 57.1523C50.8764 56.8498 51.9464 57.0912 52.6943 57.7809L52.6944 57.7811L66.8701 70.8451L67.4985 71.4242L67.6974 70.5932L72.2916 51.4014C72.2916 51.4013 72.2916 51.4012 72.2916 51.4011C72.5299 50.408 73.2507 49.6371 74.2264 49.3339C75.1873 49.0356 76.2021 49.2501 76.9571 49.9092L76.957 49.9093L76.9659 49.9168L86.6017 57.9433L86.8131 58.1194L87.0751 58.0357L94.4721 55.6719C95.4945 55.3462 96.1872 54.397 96.1872 53.3247V30.4561C96.1872 27.0378 95.5187 23.7219 94.1997 20.604C92.9251 17.5902 91.0985 14.8818 88.7726 12.5559C86.4467 10.2299 83.7383 8.40336 80.7245 7.12876C77.6066 5.80979 74.2907 5.14129 70.8724 5.14129H63.4046C61.9103 5.14129 60.6138 6.17557 60.2824 7.63313L52.3162 42.6703C52.0904 43.6629 51.3455 44.4684 50.3738 44.7701L50.3734 44.7702C49.4017 45.0728 48.3317 44.8314 47.5838 44.1416L47.5837 44.1415L33.408 31.0765L32.7796 30.4973L32.5807 31.3284L27.9855 50.5202C27.9855 50.5203 27.9854 50.5203 27.9854 50.5204C27.7472 51.5135 27.0265 52.2843 26.0509 52.5876C25.7647 52.6764 25.475 52.7199 25.1894 52.7199C24.5129 52.7199 23.853 52.4776 23.3199 52.0123L23.32 52.0122L23.3111 52.0048L13.6754 43.9782L13.464 43.8021L13.2019 43.8859L6.59653 45.9966ZM51.7748 61.7114L51.1382 61.1246L50.9462 61.9689L43.6042 94.2618C43.3415 95.4136 44.2181 96.5089 45.3976 96.5089H66.645C70.6342 96.5089 74.5029 95.7288 78.1424 94.1898L77.9472 93.728C81.4046 92.2656 84.5113 90.1711 87.1798 87.5026C89.8483 84.8341 91.9429 81.7274 93.4053 78.2699L93.867 78.4652C93.867 78.4652 93.8671 78.4652 93.8671 78.4652C95.4071 74.8256 96.1872 70.9569 96.1872 66.9667V60.693C96.1872 59.7621 95.2805 59.1011 94.3945 59.3843L87.542 61.5743C86.5915 61.8777 85.5407 61.6594 84.7902 61.0063L84.7903 61.0062L84.782 60.9993L76.085 53.7547L75.4645 53.2378L75.2766 54.0231L70.6572 73.3196C70.4173 74.3204 69.69 75.0922 68.706 75.3922C67.7214 75.6921 66.6882 75.4559 65.9315 74.7584L65.9314 74.7583L51.7748 61.7114ZM22.2917 0.825064H70.8724C87.2377 0.825064 100.503 14.0908 100.503 30.4551V66.9687C100.503 85.6678 85.3441 100.827 66.645 100.827H41.8164C18.9985 100.827 0.501334 82.3299 0.501334 59.512V22.6155C0.501334 10.5811 10.2573 0.825064 22.2917 0.825064Z"
          fill="#636262" stroke="#636262" stroke-width="1.00267"/>
</svg>
